<svg width="70" height="70" viewBox="0 0 24 24" fill="none" xmlns="http://www.w3.org/2000/svg">
  <path d="M17.523 15.3414c-.5511 0-.9993-.4486-.9993-.9997s.4482-.9993.9993-.9993c.5508 0 .9993.4486.9993.9993.0001.5511-.4485.9997-.9993.9997m-11.046 0c-.5511 0-.9993-.4486-.9993-.9997s.4486-.9993.9993-.9993c.5508 0 .9993.4486.9993.9993 0 .5511-.4485.9997-.9993.9997m11.4045-6.02l1.9973-3.4592a.416.416 0 00-.1521-.5676.416.416 0 00-.5676.1521l-2.0223 3.503C15.5902 8.2439 13.8533 7.8508 12 7.8508s-3.5902.3931-5.1349 1.2297L4.8428 5.5773a.4161.4161 0 00-.5676-.1521.4157.4157 0 00-.1521.5676l1.9973 3.4592C2.6889 11.186.8535 12.7877.8535 15.7405v.9229c0 .5511.4486.9993.9993.9993h20.2934c.5508 0 .9993-.4482.9993-.9993v-.9229c0-2.9528-1.8354-4.5545-4.0777-5.4191" fill="#3DDC84"/>
</svg>

