<svg width="70" height="70" viewBox="0 0 24 24" fill="none" xmlns="http://www.w3.org/2000/svg">
  <path d="M8.851 18.56s-.794.548.855.934c1.882.435 2.932.576 5.326.465.138-.01.306-.01.46-.02-2.146-1.37-3.262-2.72-3.262-2.72l-3.379 1.34zm-.8-3.544s-1.243 1.22.855 1.645c2.278.582 5.18.776 7.16.582.04-.01.09-.01.13-.02-2.1-1.35-3.422-2.78-3.422-2.78l-4.723 1.57zm5.703-3.423c-1.574 1.095-2.368 2.095-2.368 2.095s.68-.664 1.832-1.24c1.32-.664 2.564-.97 3.728-1.05-.23.465-.49.93-.7 1.35-.13.27-.23.5-.3.68-.01.02-.01.03-.02.04-1.082-.885-2.082-1.885-2.082-1.885zm-8.18 5.64s-1.002 1.01.604 1.48c.855.416 2.227.664 3.728.855.23.03.465.04.7.05-1.243-1.01-2.146-2.19-2.146-2.19l-2.886.805zm-2.99-2.505s-1.187 1.35.465 1.832c1.832.535 5.326 1.05 7.7.97.04 0 .09-.01.13-.01-1.832-1.35-3.422-2.78-3.422-2.78l-4.876 1.95zm12.64.02c.3.3.604.604.855.93-.3.3-.604.604-.855.93.465.3.93.604 1.35.97.04-.3.04-.604.04-.93 0-.3-.01-.604-.04-.93-.42.3-.885.604-1.35.97-.25-.326-.555-.63-.855-.93zm-1.832 3.423c.23.23.465.465.68.7-.23.23-.465.465-.68.7.465.23.93.465 1.35.7.01-.23.01-.465.01-.7 0-.23 0-.465-.01-.7-.42.23-.885.465-1.35.7zm-12.64-5.64c-1.574 1.095-2.368 2.095-2.368 2.095s.68-.664 1.832-1.24c1.32-.664 2.564-.97 3.728-1.05-.23.465-.49.93-.7 1.35-.13.27-.23.5-.3.68-.01.02-.01.03-.02.04-1.082-.885-2.082-1.885-2.082-1.885z" fill="#ED8B00"/>
  <path d="M18.331 21.35c4.276-1.35 2.278-4.276 1.05-3.728-.23.13-.465.23-.7.3.465.93.3 1.832-.13 2.568-.04.09-.09.18-.13.27.04.01.09.02.13.03.08.23.18.465.3.68.13.23.3.465.48.7zm-14.662-10.5c-.01 0-.01-.01-.02-.01-.01-.01-.01-.01-.02-.01-.01 0-.01-.01-.02-.01 0 0 .01.01.02.01.01.01.01.01.02.01.01 0 .01.01.02.01zm15.502 5.326c.3 1.832-.3 3.008-1.35 3.728 2.278-1.05 2.278-3.728 1.35-3.728z" fill="#ED8B00"/>
</svg>
