<svg width="70" height="70" viewBox="0 0 24 24" fill="none" xmlns="http://www.w3.org/2000/svg">
  <path d="M17.656 1.007c-1.355.896-3.001 1.409-4.646 1.409-4.646 0-8.415-3.769-8.415-8.415H0C0 5.988 5.988 12 12 12c1.355 0 2.71-.256 3.969-.769-.256-.512-.512-1.024-.769-1.536-.769-1.792-1.024-3.84-1.024-5.888 0-1.792.512-3.328 1.28-4.608.256-.256.512-.512.768-.768.256-.256.512-.256.512-.256zm-5.888 1.92c1.792 0 3.328-1.536 3.328-3.328 0-1.792-1.536-3.328-3.328-3.328-1.792 0-3.328 1.536-3.328 3.328 0 1.792 1.536 3.328 3.328 3.328z" fill="#FA7343"/>
</svg>
